<svg width="15" height="14" viewBox="0 0 15 14" fill="none" xmlns="http://www.w3.org/2000/svg">
<path d="M3.35759 14H0.247768V4.65292H3.35759V14ZM1.801 3.37789C0.806585 3.37789 0 2.60912 0 1.68097C7.11763e-09 1.23515 0.189748 0.80759 0.527502 0.492346C0.865256 0.177102 1.32335 0 1.801 0C2.27866 0 2.73675 0.177102 3.07451 0.492346C3.41226 0.80759 3.60201 1.23515 3.60201 1.68097C3.60201 2.60912 2.79509 3.37789 1.801 3.37789ZM14.9967 14H11.8935V9.4499C11.8935 8.3655 11.8701 6.97484 10.2767 6.97484C8.65982 6.97484 8.41205 8.15299 8.41205 9.37177V14H5.30558V4.65292H8.28817V5.92794H8.3317C8.74687 5.19355 9.76105 4.41854 11.2741 4.41854C14.4214 4.41854 15 6.35295 15 8.86551V14H14.9967Z" fill="black"/>
</svg>
